# xmcd CD database file generated by MAGIX-FreeDB-MP3_Maker_15 v2.0beta1
# 
# Track frame offsets:
#      150
#      13315
#      24476
#      37476
#      51016
#      63033
#      77248
#      89481
#      101453
#      114459
#      128488
#      142692
#      155666
#      167863
#      182946
#      196938
# 
# Disc length: 2788 seconds
# 
# Revision: 0 
# Processed by: cddbd v1.5.2PL0 Copyright (c) Steve Scherf et al.
# Submitted via: MAGIX-FreeDB-MP3_Maker_15 v2.0beta1
# 
DISCID=d50ae210
DTITLE=Various Artist - Crossroad Blues
DYEAR=2009
DGENRE=Blues
TTITLE0=Muddy Waters - Mannish Boy
TTITLE1=John Lee Hooker - Boom Booom
TTITLE2=Elmore James - Dust my Broom
TTITLE3=BB King - Three O'clock Blues
TTITLE4=Robert Johnson - Crossroad Blues
TTITLE5=Lowell Fulson - Reconsider Baby
TTITLE6=Little Walter - My Babe
TTITLE7=Jimmy Reed - Honest I do
TTITLE8=Ray Charles - Baby won't you Please come Home
TTITLE9=Dinah Washington - Mellow Mama Blues
TTITLE10=Blind Willie Johnson - Nobody's falut but mine
TTITLE11=Billie Holyday - St Louis Blues
TTITLE12=Sonny Terry - Whoopin' The Blues
TTITLE13=Nina Simone - Love me or Leave me
TTITLE14=John Lee Hooker - I'm in the mood
TTITLE15=Howlin Wolf - How many more Years
EXTD=
EXTT0=
EXTT1=
EXTT2=
EXTT3=
EXTT4=
EXTT5=
EXTT6=
EXTT7=
EXTT8=
EXTT9=
EXTT10=
EXTT11=
EXTT12=
EXTT13=
EXTT14=
EXTT15=
PLAYORDER=
